<svg width="48" height="57" viewBox="0 0 48 57" fill="none" xmlns="http://www.w3.org/2000/svg">
<g filter="url(#filter0_d_49864_288)">
<path d="M43.5 36.8382V36.8487L24.0016 47.9955L4.5 36.8487V11C4.5 8.68232 5.9051 6.05202 7.97854 3.97856C10.052 1.9051 12.6823 0.5 14.9999 0.5H33C35.3177 0.5 37.948 1.9051 40.0214 3.97856C42.0949 6.05202 43.5 8.68232 43.5 11V11.0295V11.0594V11.0896V11.1202V11.1511V11.1824V11.2141V11.2461V11.2785V11.3112V11.3443V11.3777V11.4115V11.4456V11.4801V11.5149V11.5501V11.5856V11.6215V11.6576V11.6942V11.731V11.7682V11.8057V11.8436V11.8817V11.9202V11.9591V11.9982V12.0377V12.0775V12.1176V12.158V12.1987V12.2398V12.2811V12.3228V12.3648V12.4071V12.4497V12.4926V12.5357V12.5792V12.623V12.6671V12.7115V12.7562V12.8011V12.8464V12.8919V12.9377V12.9839V13.0302V13.0769V13.1239V13.1711V13.2186V13.2664V13.3144V13.3628V13.4114V13.4602V13.5094V13.5588V13.6084V13.6583V13.7085V13.7589V13.8096V13.8606V13.9118V13.9632V14.0149V14.0669V14.1191V14.1715V14.2242V14.2771V14.3302V14.3836V14.4373V14.4911V14.5452V14.5996V14.6541V14.7089V14.7639V14.8192V14.8746V14.9303V14.9862V15.0423V15.0987V15.1552V15.212V15.269V15.3262V15.3835V15.4411V15.4989V15.5569V15.6152V15.6736V15.7322V15.791V15.85V15.9091V15.9685V16.0281V16.0878V16.1478V16.2079V16.2682V16.3287V16.3894V16.4502V16.5112V16.5724V16.6338V16.6953V16.757V16.8189V16.881V16.9432V17.0055V17.0681V17.1308V17.1936V17.2566V17.3198V17.3831V17.4466V17.5102V17.5739V17.6378V17.7019V17.7661V17.8304V17.8949V17.9595V18.0242V18.0891V18.1541V18.2193V18.2846V18.35V18.4155V18.4811V18.5469V18.6128V18.6788V18.745V18.8112V18.8776V18.9441V19.0107V19.0774V19.1442V19.2111V19.2781V19.3452V19.4124V19.4798V19.5472V19.6147V19.6823V19.75V19.8178V19.8857V19.9536V20.0217V20.0898V20.1581V20.2264V20.2947V20.3632V20.4317V20.5003V20.569V20.6378V20.7066V20.7755V20.8445V20.9135V20.9826V21.0517V21.1209V21.1902V21.2595V21.3289V21.3983V21.4678V21.5373V21.6069V21.6765V21.7462V21.8159V21.8856V21.9554V22.0253V22.0951V22.165V22.2349V22.3049V22.3749V22.4449V22.515V22.585V22.6551V22.7252V22.7954V22.8655V22.9357V23.0059V23.0761V23.1463V23.2165V23.2867V23.3569V23.4272V23.4974V23.5676V23.6379V23.7081V23.7783V23.8486V23.9188V23.989V24.0592V24.1294V24.1995V24.2697V24.3398V24.4099V24.48V24.5501V24.6202V24.6902V24.7602V24.8302V24.9001V24.97V25.0399V25.1097V25.1795V25.2493V25.319V25.3887V25.4583V25.5279V25.5975V25.667V25.7364V25.8058V25.8751V25.9444V26.0137V26.0828V26.1519V26.221V26.2899V26.3589V26.4277V26.4965V26.5652V26.6338V26.7024V26.7709V26.8393V26.9076V26.9759V27.044V27.1121V27.1801V27.248V27.3158V27.3836V27.4512V27.5188V27.5862V27.6536V27.7208V27.788V27.855V27.922V27.9888V28.0555V28.1222V28.1887V28.2551V28.3214V28.3875V28.4536V28.5195V28.5853V28.651V28.7166V28.7821V28.8474V28.9126V28.9776V29.0425V29.1073V29.172V29.2365V29.3009V29.3651V29.4292V29.4932V29.557V29.6206V29.6842V29.7475V29.8107V29.8738V29.9367V29.9994V30.062V30.1244V30.1867V30.2488V30.3107V30.3725V30.4341V30.4955V30.5568V30.6178V30.6787V30.7395V30.8V30.8604V30.9206V30.9806V31.0404V31.1V31.1594V31.2187V31.2777V31.3366V31.3953V31.4537V31.512V31.5701V31.628V31.6856V31.7431V31.8003V31.8574V31.9142V31.9708V32.0272V32.0834V32.1394V32.1951V32.2507V32.306V32.3611V32.4159V32.4706V32.525V32.5792V32.6331V32.6868V32.7403V32.7935V32.8465V32.8993V32.9518V33.0041V33.0561V33.1079V33.1594V33.2107V33.2617V33.3125V33.363V33.4132V33.4632V33.513V33.5625V33.6117V33.6606V33.7093V33.7577V33.8059V33.8537V33.9013V33.9487V33.9957V34.0425V34.089V34.1352V34.1811V34.2267V34.2721V34.3171V34.3619V34.4064V34.4505V34.4944V34.538V34.5813V34.6243V34.667V34.7094V34.7514V34.7932V34.8347V34.8758V34.9166V34.9572V34.9974V35.0373V35.0768V35.1161V35.155V35.1936V35.2319V35.2699V35.3075V35.3448V35.3817V35.4184V35.4547V35.4906V35.5262V35.5615V35.5965V35.631V35.6653V35.6992V35.7327V35.7659V35.7988V35.8313V35.8634V35.8952V35.9266V35.9577V35.9884V36.0187V36.0487V36.0783V36.1075V36.1364V36.1648V36.193V36.2207V36.2481V36.2751V36.3017V36.3279V36.3537V36.3792V36.4042V36.4289V36.4532V36.4771V36.5006V36.5237V36.5464V36.5687V36.5906V36.6121V36.6332V36.6539V36.6742V36.6941V36.7136V36.7326V36.7513V36.7695V36.7873V36.8047V36.8217V36.8382Z" fill="#FF8700" stroke="white"/>
<path d="M21.1728 32H15.5088L9.23675 16.064H15.0288L18.3888 26.4H18.4848L21.8448 16.064H27.4448L21.1728 32ZM33.569 20V26.08C33.569 26.8267 33.7077 27.392 33.985 27.776C34.2837 28.1387 34.8063 28.32 35.553 28.32C35.809 28.32 36.0757 28.2987 36.353 28.256C36.6517 28.2133 36.897 28.1493 37.089 28.064L37.153 31.904C36.7903 32.032 36.3317 32.1387 35.777 32.224C35.2223 32.3307 34.6677 32.384 34.113 32.384C33.0463 32.384 32.1503 32.256 31.425 32C30.6997 31.7227 30.113 31.3387 29.665 30.848C29.2383 30.336 28.929 29.7387 28.737 29.056C28.545 28.352 28.449 27.5733 28.449 26.72V20H25.889V16.064H28.417V11.872H33.569V16.064H37.313V20H33.569Z" fill="white"/>
</g>
<defs>
<filter id="filter0_d_49864_288" x="0" y="0" width="48" height="56.5714" filterUnits="userSpaceOnUse" color-interpolation-filters="sRGB">
<feFlood flood-opacity="0" result="BackgroundImageFix"/>
<feColorMatrix in="SourceAlpha" type="matrix" values="0 0 0 0 0 0 0 0 0 0 0 0 0 0 0 0 0 0 127 0" result="hardAlpha"/>
<feOffset dy="4"/>
<feGaussianBlur stdDeviation="2"/>
<feComposite in2="hardAlpha" operator="out"/>
<feColorMatrix type="matrix" values="0 0 0 0 0 0 0 0 0 0 0 0 0 0 0 0 0 0 0.25 0"/>
<feBlend mode="normal" in2="BackgroundImageFix" result="effect1_dropShadow_49864_288"/>
<feBlend mode="normal" in="SourceGraphic" in2="effect1_dropShadow_49864_288" result="shape"/>
</filter>
</defs>
</svg>
